#Comment line ignore any data following # character 
#Hierarchical Translation and Rotation (.htr) file 
[Header]	
#Header keywords are followed by a single value 
FileType HTR		#Single word string
DataType HTRS		#Translation followed by rotation and scale data
FileVersion 1		#integer
NumSegments 64		#integer
NumFrames 3		#integer
DataFrameRate 30		#integer, data frame rate in this file
EulerRotationOrder ZYX
CalibrationUnits mm
RotationUnits Degrees
GlobalAxisofGravity Y
BoneLengthAxis Y
ScaleFactor 1.00
[SegmentNames&Hierarchy]
#CHILD	PARENT
Pinger_Root GLOBAL
Pelvis Pinger_Root
L_Hip Pelvis
R_Hip Pelvis
Rear_Leg01 Pelvis
Spine1 Pelvis
L_Leg01 L_Hip
L_Leg02 L_Leg01
L_Leg03 L_Leg02
L_Foot L_Leg03
L_Toe1_01 L_Foot
L_Toe2_01 L_Foot
L_Toe3_01 L_Foot
planeAlignerLeft L_Foot
L_Toe1_02 L_Toe1_01
L_Toe1_03 L_Toe1_02
L_Toe2_02 L_Toe2_01
L_Toe2_03 L_Toe2_02
L_Toe3_02 L_Toe3_01
L_Toe3_03 L_Toe3_02
planeLockWeightLeft planeAlignerLeft
R_Leg01 R_Hip
R_Leg02 R_Leg01
R_Leg03 R_Leg02
R_Foot R_Leg03
planeAlignerRight R_Foot
R_Toe1_01 R_Foot
R_Toe2_01 R_Foot
R_Toe3_01 R_Foot
planeLockWeightRight planeAlignerRight
R_Toe1_02 R_Toe1_01
R_Toe1_03 R_Toe1_02
R_Toe2_02 R_Toe2_01
R_Toe2_03 R_Toe2_02
R_Toe3_02 R_Toe3_01
R_Toe3_03 R_Toe3_02
Rear_Leg02 Rear_Leg01
Rear_Leg03 Rear_Leg02
Rear_Leg04 Rear_Leg03
Rear_Foot Rear_Leg04
planeAlignerCenter Rear_Foot
Rear_Toe1_01 Rear_Foot
Rear_Toe2_01 Rear_Foot
Rear_Toe3_01 Rear_Foot
planeLockWeightCenter planeAlignerCenter
Rear_Toe1_02 Rear_Toe1_01
Rear_Toe1_03 Rear_Toe1_02
Rear_Toe2_02 Rear_Toe2_01
Rear_Toe2_03 Rear_Toe2_02
Rear_Toe3_02 Rear_Toe3_01
Rear_Toe3_03 Rear_Toe3_02
Back_Bone Spine1
Head Spine1
Motor_Bone Back_Bone
Ping_Mechanism Back_Bone
BN_LookIK Head
bottomMouth Head
L_Mouth01 Head
L_mouthFront Head
mouthGun Head
R_Mouth01 Head
R_mouthFront Head
TopMouth Head
weapon_bone Head
[BasePosition]
#SegmentName Tx, Ty, Tz, Rx, Ry, Rz, BoneLength
Pinger_Root 0.000000 0.000000 0.000000 -90.000000 0.000000 0.000000 10.000000 
Pelvis 0.000000 0.000000 0.000000 0.000000 0.000000 0.000000 10.000000 
L_Hip 0.000000 0.000000 0.000000 0.000000 0.000000 0.000000 10.000000 
R_Hip 0.000000 0.000000 0.000000 0.000000 0.000000 0.000000 10.000000 
Rear_Leg01 0.000000 0.000000 0.000000 0.000000 0.000000 0.000000 10.000000 
Spine1 0.000000 0.000000 0.000000 0.000000 0.000000 0.000000 10.000000 
L_Leg01 0.000000 0.000000 0.000000 0.000000 0.000000 0.000000 10.000000 
L_Leg02 0.000000 0.000000 0.000000 0.000000 0.000000 0.000000 10.000000 
L_Leg03 0.000000 0.000000 0.000000 0.000000 0.000000 0.000000 10.000000 
L_Foot 0.000000 0.000000 0.000000 0.000000 0.000000 0.000000 10.000000 
L_Toe1_01 0.000000 0.000000 0.000000 0.000000 0.000000 0.000000 10.000000 
L_Toe2_01 0.000000 0.000000 0.000000 0.000000 0.000000 0.000000 10.000000 
L_Toe3_01 0.000000 0.000000 0.000000 0.000000 0.000000 0.000000 10.000000 
planeAlignerLeft 0.000000 0.000000 0.000000 0.000000 0.000000 0.000000 10.000000 
L_Toe1_02 0.000000 0.000000 0.000000 0.000000 0.000000 0.000000 10.000000 
L_Toe1_03 0.000000 0.000000 0.000000 0.000000 0.000000 0.000000 10.000000 
L_Toe2_02 0.000000 0.000000 0.000000 0.000000 0.000000 0.000000 10.000000 
L_Toe2_03 0.000000 0.000000 0.000000 0.000000 0.000000 0.000000 10.000000 
L_Toe3_02 0.000000 0.000000 0.000000 0.000000 0.000000 0.000000 10.000000 
L_Toe3_03 0.000000 0.000000 0.000000 0.000000 0.000000 0.000000 10.000000 
planeLockWeightLeft 0.000000 0.000000 0.000000 0.000000 0.000000 0.000000 10.000000 
R_Leg01 0.000000 0.000000 0.000000 0.000000 0.000000 0.000000 10.000000 
R_Leg02 0.000000 0.000000 0.000000 0.000000 0.000000 0.000000 10.000000 
R_Leg03 0.000000 0.000000 0.000000 0.000000 0.000000 0.000000 10.000000 
R_Foot 0.000000 0.000000 0.000000 0.000000 0.000000 0.000000 10.000000 
planeAlignerRight 0.000000 0.000000 0.000000 0.000000 0.000000 0.000000 10.000000 
R_Toe1_01 0.000000 0.000000 0.000000 0.000000 0.000000 0.000000 10.000000 
R_Toe2_01 0.000000 0.000000 0.000000 0.000000 0.000000 0.000000 10.000000 
R_Toe3_01 0.000000 0.000000 0.000000 0.000000 0.000000 0.000000 10.000000 
planeLockWeightRight 0.000000 0.000000 0.000000 0.000000 0.000000 0.000000 10.000000 
R_Toe1_02 0.000000 0.000000 0.000000 0.000000 0.000000 0.000000 10.000000 
R_Toe1_03 0.000000 0.000000 0.000000 0.000000 0.000000 0.000000 10.000000 
R_Toe2_02 0.000000 0.000000 0.000000 0.000000 0.000000 0.000000 10.000000 
R_Toe2_03 0.000000 0.000000 0.000000 0.000000 0.000000 0.000000 10.000000 
R_Toe3_02 0.000000 0.000000 0.000000 0.000000 0.000000 0.000000 10.000000 
R_Toe3_03 0.000000 0.000000 0.000000 0.000000 0.000000 0.000000 10.000000 
Rear_Leg02 0.000000 0.000000 0.000000 0.000000 0.000000 0.000000 10.000000 
Rear_Leg03 0.000000 0.000000 0.000000 0.000000 0.000000 0.000000 10.000000 
Rear_Leg04 0.000000 0.000000 0.000000 0.000000 0.000000 0.000000 10.000000 
Rear_Foot 0.000000 0.000000 0.000000 0.000000 0.000000 0.000000 10.000000 
planeAlignerCenter 0.000000 0.000000 0.000000 0.000000 0.000000 0.000000 10.000000 
Rear_Toe1_01 0.000000 0.000000 0.000000 0.000000 0.000000 0.000000 10.000000 
Rear_Toe2_01 0.000000 0.000000 0.000000 0.000000 0.000000 0.000000 10.000000 
Rear_Toe3_01 0.000000 0.000000 0.000000 0.000000 0.000000 0.000000 10.000000 
planeLockWeightCenter 0.000000 0.000000 0.000000 0.000000 0.000000 0.000000 10.000000 
Rear_Toe1_02 0.000000 0.000000 0.000000 0.000000 0.000000 0.000000 10.000000 
Rear_Toe1_03 0.000000 0.000000 0.000000 0.000000 0.000000 0.000000 10.000000 
Rear_Toe2_02 0.000000 0.000000 0.000000 0.000000 0.000000 0.000000 10.000000 
Rear_Toe2_03 0.000000 0.000000 0.000000 0.000000 0.000000 0.000000 10.000000 
Rear_Toe3_02 0.000000 0.000000 0.000000 0.000000 0.000000 0.000000 10.000000 
Rear_Toe3_03 0.000000 0.000000 0.000000 0.000000 0.000000 0.000000 10.000000 
Back_Bone 0.000000 0.000000 0.000000 0.000000 0.000000 0.000000 10.000000 
Head 0.000000 0.000000 0.000000 0.000000 0.000000 0.000000 10.000000 
Motor_Bone 0.000000 0.000000 0.000000 0.000000 0.000000 0.000000 10.000000 
Ping_Mechanism 0.000000 0.000000 0.000000 0.000000 0.000000 0.000000 10.000000 
BN_LookIK 0.000000 0.000000 0.000000 0.000000 0.000000 0.000000 10.000000 
bottomMouth 0.000000 0.000000 0.000000 0.000000 0.000000 0.000000 10.000000 
L_Mouth01 0.000000 0.000000 0.000000 0.000000 0.000000 0.000000 10.000000 
L_mouthFront 0.000000 0.000000 0.000000 0.000000 0.000000 0.000000 10.000000 
mouthGun 0.000000 0.000000 0.000000 0.000000 0.000000 0.000000 10.000000 
R_Mouth01 0.000000 0.000000 0.000000 0.000000 0.000000 0.000000 10.000000 
R_mouthFront 0.000000 0.000000 0.000000 0.000000 0.000000 0.000000 10.000000 
TopMouth 0.000000 0.000000 0.000000 0.000000 0.000000 0.000000 10.000000 
weapon_bone 0.000000 0.000000 0.000000 0.000000 0.000000 0.000000 10.000000 
#Beginning of Data. Separated by tabs
#Fr	Tx	Ty	Tz	Rx	Ry	Rz	SF
[Pinger_Root]
132 0.000000 -746.964233 0.000000 -0.000075 -0.000000 -0.000020 746.964233
133 0.000000 -757.303955 0.000000 -0.000075 -0.000000 -0.000020 757.303955
134 0.000000 -767.644043 0.000000 -0.000075 -0.000000 -0.000020 767.644043
[Pelvis]
132 1691.148438 14881.342773 7675.344238 78.977310 -79.495789 -60.182968 16829.296875
133 1758.443359 14951.510742 7677.180176 83.450531 -80.263565 -64.094490 16899.080078
134 1814.229004 15025.740234 7679.301270 88.984550 -81.004005 -69.354210 16971.623047
[L_Hip]
132 5.766392 125.831482 872.656799 -178.253311 -81.787758 87.381340 881.701050
133 5.766392 125.831482 872.656799 -178.253342 -81.787735 87.381340 881.701050
134 5.766392 125.831482 872.656799 -178.253311 -81.787758 87.381340 881.701050
[R_Hip]
132 5.765438 125.836372 -872.654907 -1.746690 81.787712 87.381248 881.699829
133 5.765438 125.836372 -872.654907 -1.746690 81.787712 87.381248 881.699829
134 5.765438 125.836372 -872.654907 -1.746690 81.787712 87.381248 881.699829
[Rear_Leg01]
132 -192.298416 -925.602966 -0.001907 -159.716003 -5.158381 -175.672546 945.367432
133 -192.298416 -925.602966 -0.001907 -159.444321 -7.828787 -174.638474 945.367432
134 -192.298416 -925.602966 -0.001907 -159.594513 -10.399323 -173.449997 945.367432
[Spine1]
132 290.604584 5.007505 0.000477 -22.929771 7.554958 35.226162 290.647736
133 290.604584 5.007505 0.000477 -23.249294 8.590646 34.693661 290.647736
134 290.604584 5.007505 0.000477 -23.275454 9.559559 34.164917 290.647736
[L_Leg01]
132 761.932007 -0.002384 -0.069261 121.242455 -28.726915 -96.832253 761.932068
133 761.932007 -0.002384 -0.069261 121.150253 -38.372837 -94.903557 761.932068
134 761.932007 -0.002384 -0.069261 112.673782 -42.166332 -85.304977 761.932068
[L_Leg02]
132 1441.140503 -0.000954 -0.000715 0.785895 -0.291086 -136.199295 1441.140503
133 1441.140503 -0.000954 -0.000715 2.255489 -0.747731 -144.590881 1441.140503
134 1441.140503 -0.000954 -0.000715 3.895192 -0.634050 -149.471420 1441.140503
[L_Leg03]
132 1686.963989 -0.000715 -0.000954 0.061435 -0.012432 93.612114 1686.963989
133 1686.963989 -0.000715 -0.000954 0.036519 -0.010369 100.459724 1686.963989
134 1686.963989 -0.000715 -0.000954 -0.008044 0.001568 112.074883 1686.963989
[L_Foot]
132 3041.570068 -30.715107 11.297464 -41.248882 14.126657 53.883732 3041.746094
133 3041.570068 -30.715107 11.297464 -38.888477 12.791106 51.970005 3041.746094
134 3041.570068 -30.715107 11.297464 -32.448856 11.650023 52.824196 3041.746094
[L_Toe1_01]
132 -188.216690 -224.732346 -21.137953 88.599350 -1.524043 -139.375870 293.899567
133 -188.216690 -224.732346 -21.137953 88.594887 -1.554800 -139.044830 293.899567
134 -188.216690 -224.732346 -21.137953 88.613182 -1.595812 -138.993088 293.899567
[L_Toe2_01]
132 200.746536 -219.926590 148.838394 -72.874451 -3.744973 -79.026161 332.896027
133 200.746536 -219.926590 148.838394 -73.004890 -3.584290 -78.221687 332.896027
134 200.746536 -219.926590 148.838394 -73.171082 -3.538136 -77.135521 332.896027
[L_Toe3_01]
132 188.832520 -219.859131 -191.078659 -111.782829 4.433906 -80.147507 347.140900
133 188.832520 -219.859131 -191.078659 -111.611237 4.231959 -79.330544 347.140900
134 188.832520 -219.859131 -191.078659 -111.403282 4.180581 -78.233620 347.140900
[planeAlignerLeft]
132 0.812531 -811.448792 -0.314951 0.000000 -90.000000 -90.001900 811.449280
133 0.812531 -811.448792 -0.314951 0.000000 -90.000000 -90.001900 811.449280
134 0.812531 -811.448792 -0.314951 0.000000 -90.000000 -90.001900 811.449280
[L_Toe1_02]
132 413.761139 0.000477 0.000000 0.001436 -19.577745 0.001436 413.761139
133 413.761139 0.000477 0.000000 0.001442 -18.952316 0.001442 413.761139
134 413.761139 0.000477 0.000000 0.001448 -18.287937 0.001448 413.761139
[L_Toe1_03]
132 464.317322 0.000358 -0.000089 -179.963593 88.273537 -179.960098 464.317322
133 464.317322 0.000358 -0.000089 -179.985397 85.971725 -179.981888 464.317322
134 464.317322 0.000358 -0.000089 -179.991348 83.671135 -179.987839 464.317322
[L_Toe2_02]
132 342.235809 -0.000477 0.000238 0.001180 -77.878326 0.001180 342.235809
133 342.235809 -0.000477 0.000238 0.001180 -77.722855 0.001180 342.235809
134 342.235809 -0.000477 0.000238 0.001181 -77.567444 0.001181 342.235809
[L_Toe2_03]
132 420.210846 -0.000715 0.000000 -179.996811 76.653847 -179.993301 420.210846
133 420.210846 -0.000715 0.000000 -179.996536 77.351822 -179.993027 420.210846
134 420.210846 -0.000715 0.000000 -179.996231 78.049812 -179.992722 420.210846
[L_Toe3_02]
132 329.270111 0.000954 0.000000 0.001177 -81.475204 0.001177 329.270111
133 329.270111 0.000954 0.000000 0.001177 -81.343781 0.001177 329.270111
134 329.270111 0.000954 0.000000 0.001177 -81.212196 0.001177 329.270111
[L_Toe3_03]
132 439.137451 -0.001907 0.000954 -179.997528 74.446175 -179.993988 439.137451
133 439.137451 -0.001907 0.000954 -179.997345 75.066811 -179.993820 439.137451
134 439.137451 -0.001907 0.000954 -179.997147 75.687401 -179.993622 439.137451
[planeLockWeightLeft]
132 -0.000954 0.000238 -0.000305 -0.011826 -0.004376 0.005620 0.001029
133 -0.000954 0.000238 -0.000305 -0.011826 -0.004376 0.005620 0.001029
134 -0.000954 0.000238 -0.000305 -0.011826 -0.004376 0.005620 0.001029
[R_Leg01]
132 761.455627 -0.001907 -0.000358 130.399277 -7.220815 59.799999 761.455688
133 761.455627 -0.001907 -0.000358 132.796204 -6.836078 61.260635 761.455688
134 761.455627 -0.001907 -0.000358 134.772827 -6.893302 62.509106 761.455688
[R_Leg02]
132 1441.140625 0.000000 -0.000238 0.210382 0.026185 -87.742332 1441.140625
133 1441.140625 0.000000 -0.000238 0.210051 0.022313 -89.025040 1441.140625
134 1441.140625 0.000000 -0.000238 0.209806 0.018433 -90.307953 1441.140625
[R_Leg03]
132 1686.963989 0.000954 0.001431 -0.031708 0.010384 102.051186 1686.963989
133 1686.963989 0.000954 0.001431 -0.024656 0.009882 103.153763 1686.963989
134 1686.963989 0.000954 0.001431 -0.021541 0.006158 103.946983 1686.963989
[R_Foot]
132 3041.560059 -30.531288 -11.204481 8.485981 -12.813999 43.860867 3041.734131
133 3041.560059 -30.531288 -11.204481 7.498156 -11.563334 45.468525 3041.734131
134 3041.560059 -30.531288 -11.204481 6.771405 -10.435107 46.829189 3041.734131
[planeAlignerRight]
132 -0.635147 -812.270569 -0.364304 0.000000 -89.960434 -90.005180 812.270874
133 -0.635147 -812.270569 -0.364304 0.000000 -89.960434 -90.005180 812.270874
134 -0.635147 -812.270569 -0.364304 0.000000 -89.960434 -90.005180 812.270874
[R_Toe1_01]
132 -188.383347 -224.864899 21.052242 90.931114 0.610836 -168.243332 294.101532
133 -188.383347 -224.864899 21.052242 90.855835 0.828140 -168.038010 294.101532
134 -188.383347 -224.864899 21.052242 90.803146 1.000824 -167.189133 294.101532
[R_Toe2_01]
132 200.637817 -220.002121 -148.787384 -101.723930 10.990576 -43.536049 332.857574
133 200.637817 -220.002121 -148.787384 -101.714821 10.616341 -44.001801 332.857574
134 200.637817 -220.002121 -148.787384 -101.896034 10.479350 -45.093910 332.857574
[R_Toe3_01]
132 188.606735 -220.092957 191.126343 -74.192856 -17.027496 -45.954647 347.192566
133 188.606735 -220.092957 191.126343 -74.187210 -15.874181 -46.322594 347.192566
134 188.606735 -220.092957 191.126343 -73.995895 -15.152307 -47.330921 347.192566
[planeLockWeightRight]
132 -0.000477 0.000000 0.000000 -0.011823 -0.004379 -0.000027 0.000477
133 -0.000477 0.000000 0.000000 -0.011823 -0.004379 -0.000027 0.000477
134 -0.000477 0.000000 0.000000 -0.011823 -0.004379 -0.000027 0.000477
[R_Toe1_02]
132 413.762085 0.000477 -0.000119 0.001470 -15.960159 0.001470 413.762085
133 413.762085 0.000477 -0.000119 0.001470 -15.965284 0.001470 413.762085
134 413.762085 0.000477 -0.000119 0.001462 -16.784838 0.001462 413.762085
[R_Toe1_03]
132 464.317810 0.000000 0.001088 -179.996857 76.543587 -179.993347 464.317810
133 464.317810 0.000000 0.001088 -179.996857 76.556549 -179.993332 464.317810
134 464.317810 0.000000 0.001088 -179.995743 79.028870 -179.992233 464.317810
[R_Toe2_02]
132 342.234741 -0.000954 0.000238 -0.002331 -80.635780 -0.002331 342.234741
133 342.234741 -0.000954 0.000238 -0.002332 -79.953430 -0.002332 342.234741
134 342.234741 -0.000954 0.000238 -0.002333 -79.270935 -0.002333 342.234741
[R_Toe2_03]
132 420.210846 0.000715 -0.000268 -179.996216 55.685883 -179.999878 420.210846
133 420.210846 0.000715 -0.000268 -179.995804 62.392971 -179.999390 420.210846
134 420.210846 0.000715 -0.000268 -179.995270 67.588684 -179.998825 420.210846
[R_Toe3_02]
132 329.270355 -0.000477 -0.000954 0.001175 -84.172333 0.001175 329.270355
133 329.270355 -0.000477 -0.000954 0.001176 -83.460823 0.001176 329.270355
134 329.270355 -0.000477 -0.000954 0.001176 -82.749260 0.001176 329.270355
[R_Toe3_03]
132 439.137939 0.000238 0.001431 -179.995590 56.503941 -179.988281 439.137939
133 439.137939 0.000238 0.001431 -179.999359 62.664864 -179.995773 439.137939
134 439.137939 0.000238 0.001431 -179.998840 67.422066 -179.995285 439.137939
[Rear_Leg02]
132 1162.777710 -0.029802 0.005960 -5.673054 4.732686 -156.105453 1162.777710
133 1162.777710 -0.029802 0.005960 -4.010159 3.632603 -151.587509 1162.777710
134 1162.777710 -0.029802 0.005960 -2.253626 2.221621 -147.287842 1162.777710
[Rear_Leg03]
132 607.192505 -0.013351 -0.073195 0.010094 -0.005857 76.606453 607.192505
133 607.192505 -0.013351 -0.073195 0.010118 -0.005815 76.130577 607.192505
134 607.192505 -0.013351 -0.073195 0.010142 -0.005773 75.654701 607.192505
[Rear_Leg04]
132 995.874512 -0.020504 -0.011921 -0.042886 -0.018084 88.428467 995.874573
133 995.874512 -0.020504 -0.011921 -0.042639 -0.018647 86.915131 995.874573
134 995.874512 -0.020504 -0.011921 -0.042379 -0.019203 85.402313 995.874573
[Rear_Foot]
132 3096.176270 -0.067472 -0.041425 136.843002 79.843613 -48.306816 3096.176270
133 3096.176270 -0.067472 -0.041425 151.015335 79.511162 -34.329227 3096.176270
134 3096.176270 -0.067472 -0.041425 164.688660 78.813309 -20.838465 3096.176270
[planeAlignerCenter]
132 0.350077 0.966311 -838.790894 0.000009 0.000003 -179.999985 838.791565
133 0.350077 0.966311 -838.790894 0.000009 0.000003 -179.999985 838.791565
134 0.350077 0.966311 -838.790894 0.000009 0.000003 -179.999985 838.791565
[Rear_Toe1_01]
132 0.653352 83.966492 -371.173737 -0.135397 31.847298 89.644348 380.553192
133 0.653352 83.966492 -371.173737 -0.156710 31.516487 89.603439 380.553192
134 0.653352 83.966492 -371.173737 -0.179557 31.600075 89.562355 380.553192
[Rear_Toe2_01]
132 178.200760 -294.826019 -362.060547 0.957145 49.485802 -69.963852 499.765686
133 178.200760 -294.826019 -362.060547 1.003907 48.201015 -69.820557 499.765686
134 178.200760 -294.826019 -362.060547 1.049960 47.343082 -69.687996 499.765686
[Rear_Toe3_01]
132 -153.359680 -308.780914 -362.060852 -1.215843 49.485252 -112.510262 499.952881
133 -153.359680 -308.780914 -362.060852 -1.259786 48.205673 -112.665764 499.952881
134 -153.359680 -308.780914 -362.060852 -1.304160 47.349182 -112.811386 499.952881
[planeLockWeightCenter]
132 -0.000062 0.000238 0.000000 -0.011814 -0.004373 -0.000015 0.000246
133 -0.000062 0.000238 0.000000 -0.011814 -0.004373 -0.000015 0.000246
134 -0.000062 0.000238 0.000000 -0.011814 -0.004373 -0.000015 0.000246
[Rear_Toe1_02]
132 379.707825 0.194073 0.000477 -0.001035 -33.564945 0.002046 379.707855
133 379.707825 0.194073 0.000477 -0.000562 -33.569679 0.001903 379.707855
134 379.707825 0.194073 0.000477 -0.000089 -33.574409 0.001760 379.707855
[Rear_Toe1_03]
132 500.129700 0.165701 0.000119 0.008060 73.254395 0.008060 500.129761
133 500.129700 0.165701 0.000119 0.008589 74.293129 0.008589 500.129761
134 500.129700 0.165701 0.000119 0.008872 74.796402 0.008872 500.129761
[Rear_Toe2_02]
132 340.494507 0.000238 -0.000954 0.001175 -83.700394 0.001175 340.494507
133 340.494507 0.000238 -0.000954 0.001175 -84.626518 0.001175 340.494507
134 340.494507 0.000238 -0.000954 0.001175 -85.337379 0.001175 340.494507
[Rear_Toe2_03]
132 433.103577 0.000000 0.000238 179.976105 84.369980 179.976105 433.103546
133 433.103577 0.000000 0.000238 179.983002 82.081230 179.983002 433.103546
134 433.103577 0.000000 0.000238 179.986099 80.316147 179.986099 433.103546
[Rear_Toe3_02]
132 340.494141 -0.000358 -0.000477 0.001175 -83.600761 0.001175 340.494171
133 340.494141 -0.000358 -0.000477 0.001175 -84.526253 0.001175 340.494171
134 340.494141 -0.000358 -0.000477 0.001175 -85.236633 0.001175 340.494171
[Rear_Toe3_03]
132 433.103577 0.001431 -0.000238 -179.989532 84.610458 -179.986038 433.103546
133 433.103577 0.001431 -0.000238 -179.993149 82.337219 -179.989655 433.103546
134 433.103577 0.001431 -0.000238 -179.994766 80.581696 -179.991257 433.103546
[Back_Bone]
132 1312.175781 -701.934692 0.000954 2.907170 -1.686220 -81.926819 1488.125488
133 1312.175781 -701.934692 0.000954 2.772380 -1.059327 -81.603218 1488.125488
134 1312.175781 -701.934692 0.000954 2.641144 -0.431641 -81.281120 1488.125488
[Head]
132 1406.159424 809.709290 0.001431 3.822760 -1.940641 4.770393 1622.625488
133 1406.159424 809.709290 0.001431 3.910869 -1.598380 4.792046 1622.625488
134 1406.159424 809.709290 0.001431 3.999064 -1.256126 4.814226 1622.625488
[Motor_Bone]
132 1158.364380 -417.834747 0.000477 3.489239 2.706975 -103.273605 1231.419434
133 1158.364380 -417.834747 0.000477 4.673307 -0.214103 -106.199738 1231.419434
134 1158.364380 -417.834747 0.000477 5.326527 -2.892992 -108.875320 1231.419434
[Ping_Mechanism]
132 1203.974609 -418.211884 34.841084 0.000103 -0.000053 82.120995 1275.017578
133 1204.085083 -419.467957 29.879421 0.000103 -0.000053 82.120995 1275.408569
134 1204.195679 -420.724213 24.917234 0.000103 -0.000053 82.120995 1275.820068
[BN_LookIK]
132 193.241119 1380.371704 -0.002861 0.000000 89.965736 -31.038179 1393.832153
133 193.241119 1380.371704 -0.002861 0.000000 89.965736 -31.038179 1393.832153
134 193.241119 1380.371704 -0.002861 0.000000 89.965736 -31.038179 1393.832153
[bottomMouth]
132 -435.092926 615.759399 -0.000954 -0.000022 0.000016 73.527184 753.966492
133 -435.092926 615.759399 -0.000954 -0.000022 0.000016 73.527184 753.966492
134 -435.092926 615.759399 -0.000954 -0.000022 0.000016 73.527184 753.966492
[L_Mouth01]
132 554.440979 7.658243 838.222046 150.204178 23.759130 109.605339 1005.027161
133 554.440979 7.658243 838.222046 150.204178 23.759130 109.605339 1005.027161
134 554.440979 7.658243 838.222046 150.204178 23.759130 109.605339 1005.027161
[L_mouthFront]
132 551.629089 934.514771 339.150421 0.000081 2.804060 79.119301 1136.941284
133 551.629089 934.514771 339.150421 0.000081 2.804060 79.119301 1136.941284
134 551.629089 934.514771 339.150421 0.000081 2.804060 79.119301 1136.941284
[mouthGun]
132 55.332661 1627.420898 0.000000 0.000023 0.000009 -11.038128 1628.361328
133 55.332661 1627.420898 0.000000 0.000023 0.000009 -11.038128 1628.361328
134 55.332661 1627.420898 0.000000 0.000023 0.000009 -11.038128 1628.361328
[R_Mouth01]
132 554.442383 7.659197 -838.223938 29.795891 -23.759109 109.605331 1005.029541
133 554.442383 7.659197 -838.223938 29.795891 -23.759109 109.605331 1005.029541
134 554.442383 7.659197 -838.223938 29.795891 -23.759109 109.605331 1005.029541
[R_mouthFront]
132 551.629089 934.514282 -339.151367 0.000029 -2.803930 79.119133 1136.941162
133 551.629089 934.514282 -339.151367 0.000029 -2.803930 79.119133 1136.941162
134 551.629089 934.514282 -339.151367 0.000029 -2.803930 79.119133 1136.941162
[TopMouth]
132 461.269867 -56.106091 -0.008583 -0.000059 -0.000268 92.025169 464.669525
133 461.269867 -56.106091 -0.008583 -0.000059 -0.000268 92.025169 464.669525
134 461.269867 -56.106091 -0.008583 -0.000059 -0.000268 92.025169 464.669525
[weapon_bone]
132 -987.239868 1448.372803 0.001431 0.000000 89.965736 -31.038221 1752.833740
133 -987.239868 1448.372803 0.001431 0.000000 89.965736 -31.038221 1752.833740
134 -987.239868 1448.372803 0.001431 0.000000 89.965736 -31.038221 1752.833740
